<?xml version="1.0" standalone="no"?>
<!DOCTYPE svg PUBLIC "-//W3C//DTD SVG 20010904//EN"
 "http://www.w3.org/TR/2001/REC-SVG-20010904/DTD/svg10.dtd">
<svg version="1.0" xmlns="http://www.w3.org/2000/svg"
 width="2000.000000pt" height="1500.000000pt" viewBox="0 0 2000.000000 1500.000000"
 preserveAspectRatio="xMidYMid meet">

<g transform="translate(0.000000,1500.000000) scale(0.100000,-0.100000)"
fill="#FF0000" stroke="none">
<path d="M9730 11971 c-335 -126 -465 -186 -605 -281 -41 -28 -76 -50 -78 -50
-2 0 -3 42 -3 93 l1 92 -27 3 c-22 3 -45 -14 -128 -90 -196 -180 -218 -192
-314 -176 -180 31 -399 -102 -492 -299 -39 -81 -39 -82 -83 -89 -24 -4 -97 -1
-163 6 -127 13 -184 9 -235 -18 -82 -44 -778 -700 -846 -799 -15 -22 -44 -87
-65 -145 -22 -58 -51 -126 -65 -151 -37 -63 -142 -172 -352 -366 -315 -293
-424 -449 -519 -751 -49 -155 -77 -295 -137 -678 -28 -180 -54 -343 -58 -362
-7 -31 2 -54 82 -214 146 -293 218 -492 272 -746 31 -147 32 -191 5 -215 -15
-13 -30 -16 -61 -12 l-42 5 6 -141 c4 -86 13 -164 22 -197 21 -69 86 -222 266
-626 171 -385 253 -585 329 -804 56 -161 58 -165 90 -171 38 -8 85 -50 110
-100 11 -20 28 -82 40 -138 68 -337 235 -561 473 -636 68 -22 96 -25 225 -25
200 0 271 -21 377 -110 108 -89 281 -150 428 -150 l80 0 278 -144 c152 -79
324 -174 382 -210 58 -36 115 -66 126 -66 12 0 31 10 42 21 30 30 41 9 35 -64
l-4 -58 31 6 c124 22 430 47 627 52 267 6 446 -9 622 -53 92 -24 107 -25 154
-14 126 30 265 0 434 -95 74 -42 150 -62 184 -49 14 5 17 16 14 53 l-3 46 58
23 c68 27 265 72 315 72 35 0 35 0 137 -112 23 -25 51 -47 63 -50 21 -6 22 -3
22 55 0 147 31 177 181 177 l96 0 -5 49 c-9 97 -1 111 136 259 161 173 204
215 270 260 l54 36 69 -74 68 -75 0 40 c1 55 -28 112 -89 179 -28 32 -50 65
-48 73 4 23 159 73 223 73 38 0 60 -6 89 -26 39 -26 39 -27 23 -3 -22 31 -22
72 1 91 35 31 64 39 152 42 71 2 96 7 118 22 37 28 72 100 72 150 0 39 8 52
103 166 241 287 383 504 550 838 107 213 243 528 232 538 -8 8 -141 -105 -191
-164 -27 -31 -76 -95 -109 -143 -71 -100 -100 -120 -146 -97 -22 11 -31 12
-34 3 -3 -7 -16 -49 -30 -94 -14 -46 -28 -83 -30 -83 -2 0 -1 34 2 76 l6 76
-179 -139 c-467 -362 -890 -670 -1267 -921 -244 -162 -315 -198 -363 -186 -24
6 -78 60 -86 85 -3 9 -22 -2 -59 -35 -58 -52 -90 -69 -114 -60 -18 7 -29 45
-23 77 4 22 1 23 -67 25 -78 2 -88 -3 -116 -62 -20 -41 -31 -41 -57 0 -13 20
-25 34 -27 32 -3 -2 -10 -40 -17 -84 -10 -71 -12 -76 -20 -47 -5 18 -13 35
-20 39 -11 7 -51 -32 -73 -71 -9 -16 -16 -10 -53 47 -23 36 -53 75 -66 87
l-23 22 16 -61 c12 -46 13 -62 3 -72 -9 -9 -16 -8 -30 6 -19 16 -20 15 -26
-44 -4 -33 -11 -60 -15 -60 -5 0 -39 -27 -75 -60 -71 -65 -75 -66 -186 -75
-117 -9 -266 -33 -372 -58 l-96 -24 -167 39 c-287 66 -575 110 -909 138 -250
21 -393 61 -611 170 -77 39 -150 78 -163 88 l-23 18 38 24 c41 27 79 91 69
117 -6 14 -10 13 -34 -9 -32 -30 -45 -35 -136 -54 l-69 -14 -106 103 c-58 56
-270 256 -471 444 -494 461 -842 816 -937 953 -49 73 -100 180 -204 434 -54
131 -101 241 -104 244 -3 3 -16 -5 -29 -18 -36 -33 -67 -21 -99 39 -31 56 -33
80 -12 121 17 32 49 39 87 19 19 -10 20 -9 15 22 -34 192 -88 623 -83 662 3
29 27 93 57 155 l51 107 64 569 c35 312 70 605 79 650 61 305 178 589 350 846
162 243 333 433 680 754 363 337 335 315 555 443 74 44 225 132 335 198 480
284 764 401 1126 465 99 18 182 23 414 28 267 6 293 9 325 27 59 35 74 74 78
201 l4 112 -44 -5 c-53 -6 -90 10 -164 73 -28 24 -75 54 -105 68 l-54 23 -205
-76z m-3432 -5724 c12 -12 48 -83 81 -156 33 -73 68 -142 77 -152 28 -31 -6
-24 -54 11 -55 39 -69 63 -81 136 -5 34 -22 86 -38 115 -15 30 -29 57 -31 62
-8 17 26 5 46 -16z m-95 -76 c15 -45 27 -87 25 -93 -5 -14 -108 119 -108 140
0 10 6 24 12 30 26 26 43 7 71 -77z"/>
<path d="M11329 11751 c-161 -7 -184 -14 -221 -77 -23 -39 -19 -37 -55 -23
-15 6 -79 11 -142 10 -126 -1 -176 -16 -222 -67 -170 -186 147 -461 565 -493
l111 -8 100 -58 c296 -172 551 -342 1080 -720 209 -149 399 -284 423 -300 62
-41 111 -37 219 14 47 23 89 41 94 41 5 0 9 -42 9 -93 0 -107 21 -201 77 -347
69 -182 103 -231 199 -295 81 -54 123 -100 158 -174 28 -61 31 -74 31 -166 -1
-66 -7 -121 -19 -161 l-18 -61 45 -89 c88 -175 213 -341 312 -414 l53 -39 4
-65 c4 -67 25 -106 57 -106 8 0 30 14 48 32 40 39 39 42 17 -132 -18 -139 -22
-416 -6 -470 l10 -35 1 35 c3 89 43 395 71 531 16 82 46 198 65 257 19 58 32
108 30 110 -9 10 -42 -21 -79 -73 -23 -32 -50 -61 -62 -66 -21 -7 -21 -4 -28
173 -8 218 -26 408 -71 761 l-34 267 -455 728 c-336 538 -473 748 -523 804
-301 337 -750 599 -1251 729 -106 27 -322 52 -412 47 -19 -1 -100 -4 -181 -7z"/>
<path d="M8590 7509 c-531 -1369 -966 -2494 -968 -2499 -2 -6 127 -10 351 -10
l354 0 233 638 c128 350 239 652 246 670 l13 32 1154 0 c912 0 1157 -3 1164
-12 5 -7 103 -263 218 -568 114 -305 226 -601 248 -657 l39 -103 365 0 c230 0
363 4 361 10 -1 5 -437 1130 -968 2499 l-965 2491 -440 0 -440 0 -965 -2491z
m1517 1586 c64 -170 270 -724 459 -1230 189 -505 342 -920 340 -922 -1 -2
-421 -2 -933 -1 l-929 3 213 575 c117 316 319 863 449 1215 130 352 241 648
246 658 23 44 41 10 155 -298z"/>
</g>
</svg>
